<svg width="1600" height="900" viewBox="0 0 1600 900" fill="none" xmlns="http://www.w3.org/2000/svg">
  <defs>
    <linearGradient id="bg" x1="120" y1="80" x2="1480" y2="820" gradientUnits="userSpaceOnUse">
      <stop stop-color="#F6F1E8"/>
      <stop offset="0.55" stop-color="#E5EEF5"/>
      <stop offset="1" stop-color="#D7E6D8"/>
    </linearGradient>
    <linearGradient id="panel" x1="270" y1="180" x2="1330" y2="760" gradientUnits="userSpaceOnUse">
      <stop stop-color="#FFFFFF" stop-opacity="0.95"/>
      <stop offset="1" stop-color="#F9FBFC" stop-opacity="0.9"/>
    </linearGradient>
    <filter id="shadow" x="154" y="94" width="1292" height="712" filterUnits="userSpaceOnUse" color-interpolation-filters="sRGB">
      <feFlood flood-opacity="0" result="BackgroundImageFix"/>
      <feColorMatrix in="SourceAlpha" type="matrix" values="0 0 0 0 0 0 0 0 0 0 0 0 0 0 0 0 0 0 127 0" result="hardAlpha"/>
      <feOffset dy="12"/>
      <feGaussianBlur stdDeviation="28"/>
      <feColorMatrix type="matrix" values="0 0 0 0 0.180392 0 0 0 0 0.247059 0 0 0 0 0.305882 0 0 0 0.16 0"/>
      <feBlend mode="normal" in2="BackgroundImageFix" result="effect1_dropShadow_1_1"/>
      <feBlend mode="normal" in="SourceGraphic" in2="effect1_dropShadow_1_1" result="shape"/>
    </filter>
    <marker id="arrow" viewBox="0 0 12 12" refX="10" refY="6" markerWidth="12" markerHeight="12" orient="auto-start-reverse">
      <path d="M1 1L11 6L1 11V1Z" fill="#52796F"/>
    </marker>
    <style>
      .title { font: 700 54px 'Noto Sans CJK KR', 'NotoSansCJKkr-Bold', sans-serif; fill: #182126; }
      .subtitle { font: 500 25px 'Noto Sans CJK KR', 'NotoSansCJKkr-Medium', sans-serif; fill: #50606C; }
      .section { font: 700 28px 'Noto Sans CJK KR', 'NotoSansCJKkr-Bold', sans-serif; fill: #22313A; }
      .label { font: 700 24px 'Noto Sans CJK KR', 'NotoSansCJKkr-Bold', sans-serif; fill: #1D2A31; }
      .body { font: 500 20px 'Noto Sans CJK KR', 'NotoSansCJKkr-Regular', sans-serif; fill: #4E616C; }
      .small { font: 500 18px 'Noto Sans CJK KR', 'NotoSansCJKkr-Regular', sans-serif; fill: #5D6E78; }
      .step { font: 700 18px 'Noto Sans CJK KR', 'NotoSansCJKkr-Bold', sans-serif; fill: #264653; }
    </style>
  </defs>

  <rect width="1600" height="900" rx="36" fill="url(#bg)"/>
  <circle cx="197" cy="157" r="110" fill="#EFCB8D" fill-opacity="0.45"/>
  <circle cx="1452" cy="198" r="124" fill="#98C1D9" fill-opacity="0.30"/>
  <circle cx="1380" cy="758" r="168" fill="#BFD8BD" fill-opacity="0.45"/>

  <g filter="url(#shadow)">
    <rect x="210" y="130" width="1180" height="600" rx="30" fill="url(#panel)"/>
  </g>

  <text x="280" y="220" class="title">위키독스 책 만들기 준비물</text>
  <text x="280" y="264" class="subtitle">계정과 도구를 먼저 갖추면 집필 흐름이 단순해집니다.</text>

  <rect x="280" y="315" width="215" height="142" rx="24" fill="#FFF4E6"/>
  <rect x="525" y="315" width="215" height="142" rx="24" fill="#E8F1FF"/>
  <rect x="770" y="315" width="215" height="142" rx="24" fill="#EEF8EF"/>
  <rect x="1015" y="315" width="305" height="142" rx="24" fill="#F4EEFF"/>

  <circle cx="347" cy="363" r="24" fill="#E09F3E"/>
  <path d="M337 364H357" stroke="#fff" stroke-width="6" stroke-linecap="round"/>
  <path d="M347 352V375" stroke="#fff" stroke-width="6" stroke-linecap="round"/>
  <text x="385" y="360" class="label">위키독스 계정</text>
  <text x="385" y="392" class="body">책 생성, 공개, 전자책 발행</text>

  <circle cx="592" cy="363" r="24" fill="#4F86C6"/>
  <path d="M581 364L590 373L605 352" stroke="#fff" stroke-width="6" stroke-linecap="round" stroke-linejoin="round"/>
  <text x="630" y="360" class="label">깃허브 계정</text>
  <text x="630" y="392" class="body">원고 저장소와 버전 관리</text>

  <circle cx="837" cy="363" r="24" fill="#5C946E"/>
  <path d="M826 369C832 357 842 357 848 369" stroke="#fff" stroke-width="6" stroke-linecap="round"/>
  <path d="M829 356L836 349L844 356" stroke="#fff" stroke-width="6" stroke-linecap="round" stroke-linejoin="round"/>
  <text x="875" y="360" class="label">옵시디언</text>
  <text x="875" y="392" class="body">로컬 마크다운 집필 환경</text>

  <circle cx="1068" cy="363" r="24" fill="#8C6FD1"/>
  <path d="M1058 356H1078V371H1058V356Z" stroke="#fff" stroke-width="5" stroke-linejoin="round"/>
  <path d="M1063 380H1073" stroke="#fff" stroke-width="5" stroke-linecap="round"/>
  <text x="1105" y="360" class="label">LLM 아무거나</text>
  <text x="1105" y="392" class="body">초안 작성, 문장 다듬기, 구조 정리</text>

  <text x="280" y="520" class="section">한 번에 보는 작업 흐름</text>

  <rect x="285" y="562" width="180" height="86" rx="20" fill="#FAE5C8"/>
  <rect x="505" y="562" width="185" height="86" rx="20" fill="#DDEBFB"/>
  <rect x="730" y="562" width="205" height="86" rx="20" fill="#E1F0E4"/>
  <rect x="975" y="562" width="165" height="86" rx="20" fill="#ECE4FB"/>
  <rect x="1180" y="562" width="160" height="86" rx="20" fill="#DDEEE7"/>

  <text x="311" y="596" class="step">1. 책 생성</text>
  <text x="311" y="626" class="small">위키독스에서</text>

  <text x="532" y="596" class="step">2. 저장소 준비</text>
  <text x="532" y="626" class="small">깃허브 연결</text>

  <text x="757" y="596" class="step">3. 원고 작성</text>
  <text x="757" y="626" class="small">옵시디언에서</text>

  <text x="1002" y="596" class="step">4. 초안 보강</text>
  <text x="1002" y="626" class="small">LLM 활용</text>

  <text x="1207" y="596" class="step">5. 반영</text>
  <text x="1207" y="626" class="small">push 후 동기화</text>

  <path d="M469 605H495" stroke="#52796F" stroke-width="6" stroke-linecap="round" marker-end="url(#arrow)"/>
  <path d="M694 605H720" stroke="#52796F" stroke-width="6" stroke-linecap="round" marker-end="url(#arrow)"/>
  <path d="M939 605H965" stroke="#52796F" stroke-width="6" stroke-linecap="round" marker-end="url(#arrow)"/>
  <path d="M1144 605H1170" stroke="#52796F" stroke-width="6" stroke-linecap="round" marker-end="url(#arrow)"/>

  <text x="280" y="697" class="body">책 전체 흐름은 "계정 준비 → 연동 책 생성 → 로컬 집필 → LLM 보조 → Git push"로 이해하면 됩니다.</text>
</svg>
